 http://img200.imageshack.us/img200/4009/conanthebarba.jpg


Verenigde Staten
Actie / Avontuur
112 minuten

geregisseerd door Marcus Nispel
met Jason Momoa, Rachel Nichols en Ron Perlman

Conan (Momoa) is de laatste van zijn volk. Hij zag zijn vader sterven en is vastbesloten om zijn vader te wreken. Hij zal iedereen doden die verantwoordelijk was voor de dood van zijn volk. Maar hij heeft een erg gevaarlijke vijand: de almachtige Khalar Sing.



Vertaald door het DRT Vertaalteam:
Désirée

Controle: Eppo/Désirée
Sync: Opa38




Screenshots:
 
http://img51.imageshack.us/img51/5159/screenshot1jpe.jpg
 
http://img811.imageshack.us/img811/629/screenshot2pe.jpg
 
http://img685.imageshack.us/img685/1148/screenshot3wlv.jpg




INFO;


Format                                   : AVI
Format/Info                              : Audio Video Interleave
File size                                : 705 MiB
Duration                                 : 1h 52mn
Overall bit rate mode                    : Variable
Overall bit rate                         : 874 Kbps


Video
ID                                       : 0
Format                                   : MPEG-4 Visual
Format profile                           : Advanced Simple@L5
Format settings, BVOP                    : 1
Format settings, QPel                    : No
Format settings, GMC                     : No warppoints
Format settings, Matrix                  : Default (H.263)
Muxing mode                              : Packed bitstream
Codec ID                                 : XVID
Codec ID/Hint                            : XviD
Duration                                 : 1h 52mn
Bit rate                                 : 726 Kbps
Width                                    : 640 pixels
Height                                   : 272 pixels
Display aspect ratio                     : 2.35:1
Frame rate                               : 23.976 fps
Color space                              : YUV
Chroma subsampling                       : 4:2:0
Bit depth                                : 8 bits
Scan type                                : Progressive
Compression mode                         : Lossy
Bits/(Pixel*Frame)                       : 0.174
Stream size                              : 586 MiB (83%)
Writing library                          : XviD 64

Audio
ID                                       : 1
Format                                   : MPEG Audio
Format version                           : Version 1
Format profile                           : Layer 3
Mode                                     : Joint stereo
Mode extension                           : MS Stereo
Codec ID                                 : 55
Codec ID/Hint                            : MP3
Duration                                 : 1h 52mn
Bit rate mode                            : Variable
Bit rate                                 : 135 Kbps
Nominal bit rate                         : 144 Kbps
Channel(s)                               : 2 channels
Sampling rate                            : 48.0 KHz
Compression mode                         : Lossy
Stream size                              : 109 MiB (15%)





Deze film wordt u aangeboden door het DutchReleaseTeam.
Voor de reviews van de nieuwste films, muziek, series, games etc
ga dan eens naar http://www.hetmultimediacafe.be

DutchReleaseteam = Hardcoded Dutch Subs